<svg height="496pt" viewBox="0 0 496 496" width="496pt" xmlns="http://www.w3.org/2000/svg"><path d="m496 56c0-30.871094-25.128906-56-56-56h-3.3125l-144 144h-292.6875v352h464v-352h-52.6875l84.6875-84.6875zm-208 188.6875-12.6875-12.6875 124.6875-124.6875 12.6875 12.6875zm-36.6875-36.6875 124.6875-124.6875 12.6875 12.6875-124.6875 124.6875zm-5.65625 16.96875 25.375 25.375-29.597656 4.222656zm141.65625-152.96875 12.6875-12.6875 36.6875 36.6875-12.6875 12.6875zm-110.625 88-44.222656 44.222656-.542969 3.777344h-215.921875v-48zm-260.6875 320v-256h213.632812l-7.066406 49.433594 69.203125-9.890625 39.542969-39.542969h116.6875v256zm432-320v48h-100.6875l48-48zm0-75.3125-36.6875-36.6875 31.871094-31.871094c19.519531 1.542969 35.144531 17.167969 36.6875 36.6875zm0 0"/><path d="m32 176h16v16h-16zm0 0"/><path d="m64 176h16v16h-16zm0 0"/><path d="m96 176h16v16h-16zm0 0"/><path d="m208 240h-176v144h48v80h176v-144h-48zm-160 16h144v112h-144zm192 80v112h-144v-64h112v-48zm0 0"/><path d="m416 288h16v16h-16zm0 0"/><path d="m272 288h128v16h-128zm0 0"/><path d="m272 320h160v16h-160zm0 0"/><path d="m272 352h160v16h-160zm0 0"/><path d="m272 384h160v16h-160zm0 0"/><path d="m272 416h16v16h-16zm0 0"/><path d="m304 416h128v16h-128zm0 0"/><path d="m272 448h160v16h-160zm0 0"/><path d="m320 256h112v16h-112zm0 0"/><path d="m32 416h16v16h-16zm0 0"/><path d="m32 448h16v16h-16zm0 0"/></svg>